<?xml version="1.0" encoding="utf-8"?>
<!-- Generator: Adobe Illustrator 21.1.0, SVG Export Plug-In . SVG Version: 6.00 Build 0)  -->
<svg version="1.1" id="" xmlns="http://www.w3.org/2000/svg" xmlns:xlink="http://www.w3.org/1999/xlink" x="0px" y="0px"
	 viewBox="0 0 318 96" style="enable-background:new 0 0 318 96;" xml:space="preserve" focusable="false">
<style type="text/css">
	.logoColor-raz{fill:#E21D46;}
</style>
<g>
	<path class="logoColor-raz color" d="M59.8,58.9c0-8.9-5.7-19.4-14.4-19.4c-8.4,0-14.3,9.8-14.3,20.7c0,11.8,6,20.5,15,20.5c5.9,0,13.1-4.4,13.1-9
		c0-2.3-1.6-4.6-3.3-4.6c-2.1,0-4.9,4.3-9.1,4.3c-3.7,0-7-2.4-7.6-7.7h17C58.7,63.7,59.8,62.1,59.8,58.9z M39.2,56.6
		c0.4-4.5,2.8-8.1,6.3-8.1c3.7,0,5.9,3.5,6.4,8.1H39.2z"/>
	<path class="logoColor-raz color" d="M17.6,57.8c5.7-1.2,10.3-5.8,10.3-14c0-11.6-5.3-16.7-13.8-16.7H4.3C1.5,27.2,0,29.4,0,33v41.5
		c0,3.7,1.8,5.8,4.2,5.8s4.2-2.1,4.2-5.8V58.4h0.1l12.3,19.9c0.9,1.4,2.2,1.9,3.2,1.9c2.4,0,4.2-2.8,4.2-5.7c0-1-0.3-2.1-1.1-3.3
		L17.6,57.8z M14,50.5H8.3V37.4H14c3.1,0,5.2,2.3,5.2,6.5S17.1,50.5,14,50.5z"/>
	<path class="logoColor-raz color" d="M65.4,32c0.7-0.6,0.3-2.1-0.7-2.5c-1.8-0.7-3.5-0.4-4.4,0.3c-1,0.8-0.3,2,0.3,2.4s1.3,0,2.1-0.1
		C63.9,32.1,64.7,32.6,65.4,32z"/>
	<path class="logoColor-raz color" d="M86,31c0,1.4,1.3,2.5,2.9,2.5s2.8-1.1,2.8-2.5c0-8.6-9.7-15.5-21.5-15.5s-21.4,7-21.4,15.6
		c0,1.4,1.3,2.5,2.9,2.5c1.6,0,2.8-1.1,2.8-2.5c0-5.8,7-10.6,15.7-10.6S86,25.2,86,31z"/>
	<path class="logoColor-raz color" d="M69.5,8.9c0.1,1-0.5,2.3-0.3,2.6c1,1.1,2.8,0.7,3.7-0.4c0.8-0.9,0.1-1.7,0-2.7l-0.1-5.3c0-0.9,0.9-1.5,0.4-2.3
		c-0.6-0.9-2.8-1-3.7,0c-0.6,0.6-0.4,1.6-0.3,2.6L69.5,8.9z"/>
	<path class="logoColor-raz color" d="M52.5,13.7c0.4,0.5,0.3,1,0.8,1.5c1.1,0.9,3.9,0.4,3.9-1c0-0.7-0.8-1-1.2-1.7l-3.5-6.3c-0.3-0.6-0.4-1-1-1.4
		c-1.3-0.9-3.9,0.4-3.8,1.9L49,7.8L52.5,13.7z"/>
	<path class="logoColor-raz color" d="M75.4,29.7c-1,0.8-0.3,2,0.3,2.4c0.6,0.4,1.3,0,2.1-0.1c1.2,0,2,0.5,2.7-0.1s0.3-2.1-0.7-2.5
		C78,28.7,76.3,29.1,75.4,29.7z"/>
	<path class="logoColor-raz color" d="M36.7,26.2l2,0.9l3.2,1.4c1.1,0.5,1.7,1.3,2.9,1c1.5-0.3,2.6-2.7,1.8-3.9c-0.2-0.3-1.8-0.4-2.9-0.8l-5.4-2.4
		c-1-0.4-2-1-2.9-0.8c-1.3,0.4-2.1,3.2-1.4,4C34.8,26.4,35.8,25.9,36.7,26.2z"/>
	<path class="logoColor-raz color" d="M88.3,40.1c-1.9,0-3.6,1.9-3.8,4.4c-1.8-3.3-4.7-4.9-7.6-4.9c-7.3,0-13.2,9-13.2,20.7c0,12,5.7,20.5,13.2,20.5
		c3.1,0,5.6-1.7,7.6-5c0.6,2.8,1.5,4.5,3.8,4.5c3.8,0,3.8-4.2,3.8-7V47C92.1,44.3,92.1,40.1,88.3,40.1z M78,70.9
		c-4.3,0-6.3-5.6-6.3-10.7s1.9-10.9,6.3-10.9c4.2,0,6.2,5.8,6.2,10.9S82.1,70.9,78,70.9z"/>
	<path class="logoColor-raz color" d="M203.8,40.1c-2.2,0-3.5,1.6-4,4.4c-1.5-3.3-4.6-4.9-7.3-4.9c-8.1,0-13.2,10-13.2,20.7
		c0,10.6,3.9,20.4,12.3,20.4c3.7,0,6.4-1.8,8.1-5h0.1v2.5c0,5.4-2.9,8.4-6.8,8.4c-4.6,0-7.4-3.3-10-3.3c-1.6,0-3.2,2.7-3.2,4.7
		c0,5.8,9.3,8,12.6,8c9.1,0,15.4-6.4,15.4-19.3V46C207.8,42.5,206.1,40.1,203.8,40.1z M193.6,70.9c-4.2,0-6.2-5.2-6.2-10.9
		c0-5,2.1-10.7,6.2-10.7c4.4,0,6.3,5.9,6.3,11.1C199.8,65.6,197.9,70.9,193.6,70.9z"/>
	<path class="logoColor-raz color" d="M162.8,39.6c-3.8,0-6.2,1.5-7.7,4.4c-0.3-2.4-1.6-3.9-3.7-3.9c-2.3,0-4,2.4-4,5.9v28.4c0,3.6,1.7,5.9,4,5.9
		s4-2.4,4-5.9V55.8c0-4.1,1.8-7.3,5.1-7.3c2.9,0,5.2,2.4,5.2,7.3v18.6c0,3.6,1.7,5.9,4,5.9s4-2.4,4-5.9V53.9
		C173.8,45,169.1,39.6,162.8,39.6z"/>
	<path class="logoColor-raz color" d="M91.5,5.3c-0.6,0.4-0.6,0.8-1,1.4l-4.6,7c-0.4,0.7-1.2,0.9-1.2,1.7c0,1.4,2.8,1.9,3.9,1
		c0.5-0.4,0.4-0.9,0.8-1.5l4.5-6.5l1.4-1.1C95.4,5.8,92.8,4.5,91.5,5.3z"/>
	<path class="logoColor-raz color" d="M104.7,26.2l2-0.9c0.9-0.4,2,0.1,2.5-0.7c0.6-0.8-0.4-3.6-1.7-4c-0.9-0.2-1.8,0.4-2.8,0.9L97,25.2
		c-1,0.5-2.6,0.6-2.8,0.9c-0.7,1.2,0.7,3.5,2.2,3.8c1.3,0.2,1.7-0.6,2.8-1.1L104.7,26.2z"/>
	<path class="logoColor-raz color" d="M122.1,22.9c-2.3,0-4,2.4-4,5.9v14.5c-2.1-2.4-4.8-3.7-7.6-3.7c-8.6,0-12.9,10.7-12.9,21.1
		c0,10.1,5.1,20.1,13.2,20.1c2.7,0,5.8-1.6,7.3-4.9c0.5,2.8,1.8,4.4,4,4.4c2.3,0,4-2.4,4-5.9V28.8C126.1,25.3,124.5,22.9,122.1,22.9
		z M112,70.9c-4.2,0-6.2-5.8-6.2-10.7c0-5,2.1-10.9,6.2-10.9c4.3,0,6.3,5.3,6.3,10.5S116.4,70.9,112,70.9z"/>
	<path class="logoColor-raz color" d="M136.8,24.1c-2.4,0-4.5,2.8-4.5,5.8c0,3.3,2.1,6.1,4.5,6.1c2.5,0,4.5-2.8,4.5-6.1
		C141.3,26.8,139.2,24.1,136.8,24.1z"/>
	<path class="logoColor-raz color" d="M136.8,40.1c-2.3,0-4,2.4-4,5.9v28.4c0,3.6,1.7,5.9,4,5.9s4-2.4,4-5.9V46C140.8,42.5,139.1,40.1,136.8,40.1z"
		/>
	<path class="logoColor-raz color" d="M285.6,53.9h-18.2c-2.1,0.2-3.2,2.1-3.2,4.7c0,2.5,1.1,4.4,3.2,4.6h18.2c2.1-0.2,3.2-2.1,3.2-4.6
		C288.8,56,287.7,54.1,285.6,53.9z"/>
	<path class="logoColor-raz color" d="M252.9,32.7c-0.9-3.6-3-6.1-5.9-6.1c-2.8,0-5,2.7-5.9,6.1l-11.2,40.2c-0.1,0.4-0.4,1.3-0.4,2.4
		c0,3,1.9,5.2,4.1,5.2c2.3,0,3.4-1.6,4-3.9l1.7-6.9h15.4l1.7,7c0.6,2.2,1.7,3.8,4.1,3.8c2.1,0,3.8-2,3.8-4.9c0-0.5-0.1-1.6-0.4-2.7
		L252.9,32.7z M241.7,59.5L247,38h0.1l5.2,21.5H241.7z"/>
	<path class="logoColor-raz color" d="M314,70.3h-16.1l17.8-32.9c0.7-1.3,1.2-3.1,1.2-4.7c0-2.6-1.4-5.3-4.7-5.3h-20.3c-2.1,0-3.9,2.2-3.9,5
		c0,3,1.7,4.7,3.9,4.7h14.6l-17.9,33.3c-0.7,1.3-1.1,2.8-1.1,4.3c0,3.1,1.7,5.3,4.7,5.3H314c2,0,4-2.1,4-4.9
		C318,72,316.4,70.3,314,70.3z"/>
</g>
</svg>
